<?xml version="1.0" standalone="no"?>
<!DOCTYPE svg PUBLIC "-//W3C//DTD SVG 20010904//EN"
 "http://www.w3.org/TR/2001/REC-SVG-20010904/DTD/svg10.dtd">
<svg version="1.0" xmlns="http://www.w3.org/2000/svg"
 width="200.000000pt" height="200.000000pt" viewBox="0 0 200.000000 200.000000"
 preserveAspectRatio="xMidYMid meet">

<g transform="translate(0.000000,200.000000) scale(0.100000,-0.100000)"
fill="#000000" stroke="none">
<path d="M0 1000 l0 -1000 1000 0 1000 0 0 1000 0 1000 -1000 0 -1000 0 0
-1000z m1178 777 c2 -11 -3 -17 -17 -17 -23 0 -35 15 -26 31 10 15 39 6 43
-14z m-278 -12 c66 -34 76 -121 19 -169 -93 -78 -222 43 -148 138 36 46 80 56
129 31z m388 6 c21 -13 11 -55 -14 -59 -30 -4 -48 21 -34 47 11 22 27 26 48
12z m-623 -96 c37 -36 34 -86 -6 -119 -40 -34 -74 -33 -110 3 -56 57 -23 141
56 141 25 0 44 -8 60 -25z m500 0 c47 -46 24 -125 -42 -141 -53 -14 -113 46
-99 99 16 67 94 90 141 42z m295 5 c11 -11 20 -29 20 -40 0 -26 -34 -60 -62
-60 -53 0 -79 74 -36 104 30 21 54 20 78 -4z m166 -182 c21 -41 10 -85 -29
-109 -58 -35 -127 4 -127 71 0 86 116 115 156 38z m-1158 30 c17 -17 15 -73
-3 -88 -8 -7 -26 -12 -40 -12 -36 0 -55 20 -55 56 0 40 16 56 55 56 17 0 36
-5 43 -12z m860 0 c17 -17 15 -73 -3 -88 -8 -7 -26 -12 -40 -12 -36 0 -55 20
-55 56 0 40 16 56 55 56 17 0 36 -5 43 -12z m-460 -31 c4 -21 -25 -34 -40 -19
-8 8 -8 16 2 27 16 19 34 15 38 -8z m-109 -21 c22 -26 -10 -63 -44 -50 -15 6
-21 45 -8 57 11 12 40 8 52 -7z m391 -15 c79 -30 148 -86 199 -161 35 -53 47
-64 67 -62 30 4 34 -27 4 -35 -16 -4 -18 -10 -12 -32 8 -31 8 -198 -1 -207 -4
-4 -17 0 -31 9 -13 9 -50 25 -82 36 -56 19 -59 21 -75 70 -45 132 -174 239
-312 257 -29 4 -51 13 -56 23 -11 21 -21 101 -13 101 4 1 30 7 57 15 66 20
184 13 255 -14z m-528 -58 c10 -9 18 -27 18 -40 0 -28 -33 -63 -60 -63 -11 0
-29 9 -40 20 -55 55 24 135 82 83z m138 -23 c0 -28 -2 -30 -37 -30 l-38 1 33
29 c18 17 34 30 37 30 3 0 5 -13 5 -30z m-406 -32 c15 -24 -13 -53 -43 -43
-21 6 -29 43 -14 59 12 12 45 2 57 -16z m1055 3 c13 -24 -8 -55 -35 -49 -20 3
-30 29 -20 54 8 20 43 17 55 -5z m235 -45 c62 -26 83 -85 51 -146 -29 -57
-102 -68 -154 -24 -58 49 -46 140 22 169 40 18 41 18 81 1z m-878 -78 c-3 -35
-11 -101 -18 -148 -9 -71 -9 -91 3 -114 21 -44 41 -52 91 -38 100 29 195 45
228 39 30 -6 41 -17 73 -72 l39 -64 -21 -64 c-29 -86 -48 -104 -116 -112 -155
-20 -345 79 -410 212 -16 33 -25 41 -44 40 -17 -1 -26 4 -29 16 -2 12 3 17 18
17 17 0 21 4 15 17 -14 37 -17 141 -6 193 25 116 46 136 145 139 l39 1 -7 -62z
m183 42 c7 0 11 -6 8 -13 -7 -20 -130 -187 -134 -183 -2 1 4 50 14 108 l16
105 41 -8 c23 -5 47 -8 55 -9z m-460 -15 c75 -38 43 -155 -43 -155 -26 0 -40
7 -60 31 -34 40 -33 74 3 110 33 32 58 36 100 14z m551 -25 c22 -11 40 -22 40
-25 0 -8 -252 -225 -261 -225 -24 0 -1 40 84 150 50 65 93 119 95 120 1 0 21
-9 42 -20z m-730 -5 c0 -9 -7 -18 -16 -22 -18 -7 -39 11 -30 26 11 17 46 13
46 -4z m828 -85 c12 -18 22 -36 22 -40 0 -6 -279 -120 -295 -120 -4 0 47 45
112 100 65 55 123 98 128 97 6 -2 20 -18 33 -37z m36 -86 c3 -9 6 -18 6 -20 0
-2 -26 -4 -57 -3 l-58 0 45 19 c56 23 57 23 64 4z m434 -34 c45 -42 34 -112
-21 -138 -82 -39 -157 69 -95 135 28 30 85 31 116 3z m-1145 -14 c72 -67 28
-176 -70 -176 -94 0 -139 105 -74 171 39 39 105 41 144 5z m722 -26 c4 -6 -6
-7 -27 -3 -44 8 -48 13 -10 13 17 0 34 -4 37 -10z m89 -16 c22 -8 20 -22 -9
-69 l-24 -40 -1 58 c0 57 4 63 34 51z m-96 -13 c8 -5 12 -22 10 -42 l-3 -34
-22 38 c-13 21 -23 40 -23 43 0 7 24 4 38 -5z m191 -45 c7 -8 10 -20 6 -25 -7
-12 -130 -101 -139 -101 -15 0 -3 30 39 93 48 70 60 75 94 33z m369 17 c5 -17
-26 -29 -40 -15 -6 6 -7 15 -3 22 9 14 37 9 43 -7z m-1090 -112 c6 -40 -39
-56 -58 -20 -9 15 -8 24 1 35 18 22 53 13 57 -15z m812 9 c11 -11 20 -29 20
-40 0 -26 -34 -60 -62 -60 -53 0 -79 74 -36 104 30 21 54 20 78 -4z m248 -6
c2 -11 -4 -26 -12 -33 -31 -26 -71 14 -45 45 17 21 53 14 57 -12z m-428 -55
c-41 -35 -70 -53 -70 -42 1 8 90 73 100 73 3 -1 -11 -14 -30 -31z m-791 -4
c32 -16 41 -33 41 -78 0 -95 -142 -106 -166 -13 -8 32 14 77 46 93 32 16 45
16 79 -2z m259 -51 c41 -29 20 -104 -29 -104 -39 0 -59 19 -59 55 0 33 27 65
55 65 6 0 21 -7 33 -16z m540 7 c21 -13 11 -55 -14 -59 -30 -4 -48 21 -34 47
11 22 27 26 48 12z m320 -7 c41 -29 20 -104 -29 -104 -39 0 -59 19 -59 55 0
33 27 65 55 65 6 0 21 -7 33 -16z m-431 -50 c8 -22 -18 -37 -36 -20 -7 8 -10
19 -7 25 10 16 36 13 43 -5z m-226 -73 c36 -36 37 -70 3 -110 -51 -61 -144
-26 -144 54 0 79 84 112 141 56z m500 0 c31 -31 36 -59 17 -94 -17 -33 -39
-46 -76 -47 -86 -1 -113 114 -37 158 33 19 65 13 96 -17z m-230 -40 c23 -23
29 -38 29 -71 0 -118 -177 -141 -206 -26 -25 101 103 171 177 97z m-599 2 c10
-9 18 -27 18 -40 0 -28 -33 -63 -60 -63 -11 0 -29 9 -40 20 -55 55 24 135 82
83z m137 -127 c23 -28 -17 -68 -45 -45 -15 12 -19 41 -7 52 11 12 40 8 52 -7z
m107 -65 c-10 -16 -36 -13 -43 5 -8 22 18 37 36 20 7 -8 10 -19 7 -25z m-526
-186 c0 -77 -4 -125 -10 -125 -6 0 -10 46 -10 118 0 104 4 132 17 132 2 0 3
-56 3 -125z m153 33 c20 -3 22 -9 25 -80 2 -49 -1 -78 -8 -78 -6 0 -10 25 -10
60 0 47 -3 60 -15 60 -12 0 -15 -13 -15 -60 0 -33 -4 -60 -10 -60 -12 0 -14
209 -2 237 5 12 8 4 10 -29 3 -39 6 -47 25 -50z m557 81 c0 -6 -9 -13 -20 -16
-14 -4 -20 -14 -20 -34 0 -22 5 -29 20 -29 11 0 20 -4 20 -10 0 -5 -9 -15 -20
-22 -16 -10 -20 -24 -20 -70 0 -32 -4 -58 -10 -58 -11 0 -14 232 -3 243 11 11
53 8 53 -4z m825 -84 c18 0 20 -8 23 -78 l3 -78 -36 3 -35 2 0 107 c0 120 12
176 20 94 4 -42 8 -50 25 -50z m-1588 -98 c-2 -34 -3 -6 -3 63 0 69 1 97 3 62
2 -34 2 -90 0 -125z m-117 143 c0 -15 -7 -20 -25 -20 -23 0 -25 -4 -25 -43 0
-39 3 -43 22 -43 14 1 24 -6 26 -16 3 -14 -3 -18 -22 -18 -22 0 -26 -4 -26
-30 0 -16 -5 -30 -10 -30 -7 0 -10 41 -9 110 l1 110 34 0 c27 0 34 -4 34 -20z
m390 0 c0 -11 -4 -20 -10 -20 -5 0 -10 9 -10 20 0 11 5 20 10 20 6 0 10 -9 10
-20z m124 11 c3 -5 9 -54 12 -110 l7 -101 -42 0 -42 0 2 110 2 110 28 0 c15 0
30 -4 33 -9z m53 -23 c-3 -7 -5 -2 -5 12 0 14 2 19 5 13 2 -7 2 -19 0 -25z
m130 0 c-3 -7 -5 -2 -5 12 0 14 2 19 5 13 2 -7 2 -19 0 -25z m650 0 c-3 -7 -5
-2 -5 12 0 14 2 19 5 13 2 -7 2 -19 0 -25z m163 -58 c0 -92 8 -109 36 -72 12
15 13 13 14 -20 0 -37 -1 -38 -35 -38 l-35 0 0 110 c0 67 4 110 10 110 6 0 10
-37 10 -90z m-199 30 c5 0 9 -9 9 -20 0 -11 -4 -20 -10 -20 -5 0 -10 -20 -10
-45 0 -25 5 -45 10 -45 6 0 10 -7 10 -16 0 -9 -7 -14 -17 -12 -14 2 -19 15
-21 58 -2 30 -8 57 -13 61 -7 4 -7 14 0 30 5 13 13 33 17 44 7 18 8 17 12 -7
2 -16 8 -28 13 -28z m-1233 -82 l3 -78 -30 0 c-24 0 -32 5 -37 25 -11 42 3 75
31 75 14 0 25 5 25 10 0 6 -14 10 -30 10 -28 0 -30 2 -20 21 7 13 19 19 33 17
20 -3 22 -10 25 -80z m176 66 c3 -9 6 -45 6 -80 l0 -64 -36 0 -35 0 3 48 c3
40 6 47 26 50 30 5 28 22 -3 22 -24 0 -34 18 -18 33 12 13 51 7 57 -9z m136
-64 c0 -47 -4 -80 -10 -80 -11 0 -14 118 -4 144 11 29 14 17 14 -64z m274 58
c8 -30 8 -102 0 -122 -4 -10 -18 -16 -35 -16 l-29 0 0 73 c0 41 3 77 7 80 15
16 51 6 57 -15z m128 10 c11 -19 10 -148 -2 -148 -6 0 -10 27 -10 60 0 53 -2
60 -20 60 -16 0 -20 -8 -23 -62 -3 -60 -3 -59 -5 17 l-2 81 27 2 c15 1 30 -4
35 -10z m162 -4 c3 -9 6 -37 6 -64 0 -66 -7 -80 -41 -80 l-29 0 0 73 c0 41 3
77 7 80 12 13 51 7 57 -9z m75 -22 c-1 -20 -3 -29 -6 -19 -10 38 -23 14 -23
-43 0 -33 -4 -60 -10 -60 -6 0 -10 33 -10 78 0 76 1 78 25 80 23 2 25 -2 24
-36z m135 15 c10 -36 7 -137 -4 -137 -6 0 -10 27 -10 60 0 47 -3 60 -15 60
-12 0 -15 -13 -15 -60 0 -33 -4 -60 -10 -60 -6 0 -10 27 -10 60 0 47 -3 60
-15 60 -12 0 -15 -13 -15 -60 0 -33 -4 -60 -10 -60 -6 0 -10 33 -10 78 l0 79
54 1 c47 0 55 -2 60 -21z m84 -59 l3 -78 -31 0 c-31 0 -31 0 -28 48 3 40 6 47
26 50 30 5 28 22 -3 22 -14 0 -25 6 -25 13 0 20 12 28 35 25 18 -3 20 -11 23
-80z m147 55 l7 -28 10 28 c5 15 14 27 18 27 5 0 3 -17 -4 -37 -11 -31 -11
-44 0 -73 16 -44 16 -50 5 -50 -5 0 -14 12 -19 28 l-10 27 -7 -28 c-4 -15 -12
-27 -17 -27 -6 0 -7 11 -2 28 4 15 8 38 8 52 0 14 -4 37 -8 53 -5 16 -4 27 2
27 5 0 13 -12 17 -27z m239 11 c3 -9 6 -45 6 -80 l0 -65 -32 3 c-32 3 -33 5
-33 48 0 39 3 45 23 48 30 5 28 22 -3 22 -27 0 -28 1 -19 24 8 21 50 21 58 0z
m-1067 -106 c-2 -24 -4 -7 -4 37 0 44 2 63 4 43 2 -21 2 -57 0 -80z m130 0
c-2 -24 -4 -7 -4 37 0 44 2 63 4 43 2 -21 2 -57 0 -80z m650 0 c-2 -24 -4 -7
-4 37 0 44 2 63 4 43 2 -21 2 -57 0 -80z"/>
<path d="M1850 114 c0 -38 3 -45 18 -42 12 2 18 15 20 46 3 37 1 42 -17 42
-18 0 -21 -6 -21 -46z"/>
<path d="M640 190 c0 -22 4 -28 15 -24 8 4 15 17 15 30 0 15 -6 24 -15 24 -10
0 -15 -10 -15 -30z"/>
<path d="M640 105 c0 -20 5 -25 25 -25 20 0 25 5 25 25 0 20 -5 25 -25 25 -20
0 -25 -5 -25 -25z"/>
<path d="M218 106 c-10 -7 -18 -18 -18 -25 0 -16 30 -14 36 4 10 24 0 35 -18
21z"/>
<path d="M400 110 c0 -5 -7 -10 -16 -10 -20 0 -13 -24 9 -28 12 -3 17 4 17 22
0 14 -2 26 -5 26 -3 0 -5 -4 -5 -10z"/>
<path d="M780 115 c0 -38 3 -45 20 -45 17 0 20 7 20 45 0 38 -3 45 -20 45 -17
0 -20 -7 -20 -45z"/>
<path d="M1070 115 c0 -38 3 -45 20 -45 17 0 20 7 20 45 0 38 -3 45 -20 45
-17 0 -20 -7 -20 -45z"/>
<path d="M1400 110 c0 -5 -7 -10 -15 -10 -8 0 -15 -7 -15 -15 0 -8 9 -15 20
-15 15 0 20 7 20 25 0 14 -2 25 -5 25 -3 0 -5 -4 -5 -10z"/>
<path d="M1773 103 c-18 -7 -16 -33 2 -33 8 0 15 9 15 20 0 11 -1 20 -2 19 -2
0 -9 -3 -15 -6z"/>
</g>
</svg>
